<svg version="1.1" xmlns="http://www.w3.org/2000/svg" viewBox="0 0 990.4453697072227 590.0272213290594" width="990.4453697072227" height="590.0272213290594">
  <!-- svg-source:excalidraw -->
  
  <defs>
    <style>
      @font-face {
        font-family: "Virgil";
        src: url("https://excalidraw.com/Virgil.woff2");
      }
      @font-face {
        font-family: "Cascadia";
        src: url("https://excalidraw.com/Cascadia.woff2");
      }
    </style>
  </defs>
  <rect x="0" y="0" width="990.4453697072227" height="590.0272213290594" fill="#ffffff"></rect><g stroke-linecap="round" transform="translate(270.20001220703125 10) rotate(0 67.20001220703125 32.02723658784848)"><path d="M0.37 -1.54 C36.43 1.78, 68.71 1.9, 136.17 -0.71 M-0.24 -0.69 C43.34 0.79, 88.11 2.02, 133.54 0.3 M134.02 0.66 C134.97 21.05, 136.29 43.87, 136.03 64.83 M134.91 0.85 C133.36 16.18, 134.74 31.23, 134.88 63.77 M133.64 65.54 C100.84 62.84, 66.66 64.48, 0.59 63.16 M134.91 64.83 C89.13 63.79, 44.22 62.02, 0.3 64.33 M0.93 63.93 C-2.19 49.03, -1.79 35.81, -0.33 1.74 M0.99 65.01 C-1.1 41.35, 0.29 17.83, 0.07 -0.05" stroke="#000000" stroke-width="1" fill="none"></path></g><g transform="translate(304.5148684237788 12.171912374291963) rotate(0 29 12.5)"><text x="0" y="18" font-family="Virgil, Segoe UI Emoji" font-size="20.017024912732715px" fill="#000000" text-anchor="start" style="white-space: pre;" direction="ltr">App.js</text></g><g stroke-linecap="round" transform="translate(269 131.97274815336246) rotate(0 67.20001220703125 32.02723658784848)"><path d="M-0.08 -1.3 C49.49 0.93, 102.72 1.16, 135.63 1.04 M0.31 0.71 C45.28 -0.36, 88.55 -1.07, 134.71 -0.56 M133.11 0.48 C132.74 19.79, 135.93 39.68, 135.61 63.34 M133.75 0.88 C134.14 23.35, 134.16 45.65, 133.9 63.64 M134.08 63.81 C85.08 65.04, 32.07 64.94, -1.72 65.46 M133.43 64.14 C81.99 63.14, 30.08 63.02, 0.96 64.07 M0 62.09 C0.21 47.62, -1.26 32.08, -0.89 -1.14 M0.6 64.68 C0.47 38.49, 0.72 13.27, -0.4 0.12" stroke="#000000" stroke-width="1" fill="none"></path></g><g transform="translate(303.314856216748 134.14466052765442) rotate(0 35.5 12.5)"><text x="0" y="18" font-family="Virgil, Segoe UI Emoji" font-size="20.017024912732715px" fill="#000000" text-anchor="start" style="white-space: pre;" direction="ltr">Home.js</text></g><g stroke-linecap="round" transform="translate(10 369.97274815336243) rotate(0 67.20001220703125 32.02723658784848)"><path d="M-1.14 1.81 C26.82 -0.48, 58.17 1.84, 134.27 -1.09 M0.12 0.1 C42.29 0.26, 86.36 -0.41, 134.17 -0.34 M135.4 1.64 C136.25 16.8, 133.08 31.82, 136.02 65.52 M134.09 0.49 C134.54 21.87, 135.26 42.71, 134.5 64.06 M133.15 65.28 C93.81 62.62, 51.79 64.47, 0.78 63.05 M134.48 63.71 C92.16 65.13, 52.15 64.5, 0.92 63.76 M0.15 62.45 C-1.52 41.96, -0.34 16.54, -1.16 -0.53 M-0.57 63.94 C0.79 39.4, -0.23 13.12, -0.3 -0.62" stroke="#000000" stroke-width="1" fill="none"></path></g><g transform="translate(19.314856216748012 386.1446605276544) rotate(0 63 12.5)"><text x="0" y="18" font-family="Virgil, Segoe UI Emoji" font-size="20.017024912732715px" fill="#000000" text-anchor="start" style="white-space: pre;" direction="ltr">SearchBar.js</text></g><g stroke-linecap="round" transform="translate(270 373.97274815336243) rotate(0 67.20001220703125 32.02723658784848)"><path d="M-1.45 -1.3 C45.3 1.88, 91.44 0.4, 133.03 -0.14 M0.37 -0.83 C36.93 0.58, 71.65 0.27, 133.58 0.14 M132.77 1.35 C133.11 20.67, 134.85 37.43, 134.53 64.1 M133.76 -0.54 C134.77 20.1, 133.94 40.59, 135.28 63.86 M133.21 63.19 C103.14 63.92, 73.26 63.86, 0.37 62.21 M133.71 64.79 C99.28 64.06, 64.62 65.61, -0.67 63.98 M-1.93 64.7 C0.57 48.43, -0.9 36.19, -0.27 0.16 M-0.92 63.14 C0.91 49.13, 0.42 35.46, 0.42 -0.7" stroke="#000000" stroke-width="1" fill="none"></path></g><g transform="translate(280.314856216748 380.1446605276544) rotate(0 49.5 12.5)"><text x="0" y="18" font-family="Virgil, Segoe UI Emoji" font-size="20.017024912732715px" fill="#000000" text-anchor="start" style="white-space: pre;" direction="ltr">Results.js</text></g><g stroke-linecap="round" transform="translate(267 515.9727481533624) rotate(0 67.20001220703125 32.027236587848506)"><path d="M1.49 0.96 C41.45 2.02, 85.15 -0.73, 134.31 1.83 M-0.64 -0.11 C30.31 1.27, 62.63 0.48, 133.74 0.75 M132.45 0.6 C132.62 16.53, 135.03 36.19, 133.99 65.49 M134.38 0 C134.87 21.88, 134.36 44.1, 133.69 64.67 M132.75 63.98 C102.87 65.87, 69.84 62.1, -0.37 63.28 M134 63.76 C103.21 64.58, 72.57 64.77, -0.52 64.34 M1.99 63.38 C-0.79 37.68, 1.42 16.67, 0.26 0.4 M0 63.67 C0.34 47.24, -0.6 32.05, 0.79 -0.94" stroke="#000000" stroke-width="1" fill="none"></path></g><g transform="translate(276.9057871581158 523.3260417002929) rotate(0 60.78571428571445 11.500000000000028)"><text x="0" y="16.00000000000004" font-family="Virgil, Segoe UI Emoji" font-size="18.271963269080125px" fill="#000000" text-anchor="start" style="white-space: pre;" direction="ltr">CardListing.js</text></g><g stroke-linecap="round" transform="translate(584 515.9727481533624) rotate(0 67.20001220703125 32.027236587848506)"><path d="M0.66 1.49 C40.71 0.31, 79.87 -3.14, 135.51 1.03 M0.23 0.45 C31.47 -1.25, 64.26 -0.35, 134.83 0.33 M134.86 -1.4 C133.17 11.18, 133.75 25.96, 134.43 64.92 M133.62 0.03 C133.9 22.95, 133.55 44.17, 134.8 63.48 M132.46 62.55 C99.58 62.76, 66.14 66, 1.8 62.92 M134.93 64.28 C92.99 65.12, 50.2 64.49, -0.57 64.75 M1.46 62.06 C-1.03 49.58, 0.23 37.4, 1.16 0.55 M0.7 64.03 C0.17 38.29, -0.56 13.77, -0.89 0.82" stroke="#000000" stroke-width="1" fill="none"></path></g><g transform="translate(593.314856216748 533.1446605276544) rotate(0 59 10.5)"><text x="0" y="15" font-family="Virgil, Segoe UI Emoji" font-size="16.517545032884353px" fill="#000000" text-anchor="start" style="white-space: pre;" direction="ltr">CardDetails.js</text></g><g stroke-linecap="round" transform="translate(266 238.97274815336243) rotate(0 67.20001220703125 32.02723658784848)"><path d="M-0.97 -1.04 C41.68 -1.14, 87.14 -0.54, 132.64 0.15 M-0.86 -0.82 C49.86 -0.78, 100.49 -1.18, 133.78 -0.39 M135.51 -0.26 C133.66 26.64, 135.89 50.24, 134.12 63.15 M133.53 -0.51 C133.73 24.68, 134.18 49.64, 133.87 63.35 M136.14 62.44 C102.18 61.83, 71.18 64.27, 1.34 64.44 M134 63.49 C85.27 64.98, 36.01 66.22, 0.45 64.76 M1.88 63.43 C-0.82 48.91, -0.94 32.1, 1.05 -1.09 M-0.97 64.77 C-0.12 41.5, 0.91 19.57, 0.72 0.38" stroke="#000000" stroke-width="1" fill="none"></path></g><g transform="translate(273.314856216748 258.1446605276544) rotate(0 62.5 12.5)"><text x="0" y="18" font-family="Virgil, Segoe UI Emoji" font-size="20.017024912732715px" fill="#000000" text-anchor="start" style="white-space: pre;" direction="ltr">Navigation.js</text></g><g stroke-linecap="round" transform="translate(582 129.97274815336243) rotate(0 67.20001220703125 32.02723658784848)"><path d="M0.53 1.44 C46.93 -1.54, 96.99 -1.92, 135.54 -0.38 M0.43 0.77 C27.23 1.51, 56.24 2, 133.54 0.89 M135.9 1.54 C135.06 15.07, 134.42 27.03, 133.54 63.88 M134.07 -0.74 C135.82 14.19, 134.79 27.49, 133.85 64.78 M133.99 63.07 C86.59 67.1, 39.5 65.55, -0.95 62.36 M135.03 63.45 C97.5 62.27, 60.11 62.04, 0.08 64.56 M0.77 65.49 C-1.34 47.87, 1.88 25.92, 0.52 0.47 M-0.58 64.73 C0.92 50.71, 0.18 37.96, 0.4 0.2" stroke="#000000" stroke-width="1" fill="none"></path></g><g transform="translate(590.314856216748 134.14466052765442) rotate(0 58 12.5)"><text x="0" y="18" font-family="Virgil, Segoe UI Emoji" font-size="20.017024912732715px" fill="#000000" text-anchor="start" style="white-space: pre;" direction="ltr">Watchlist.js</text></g><g stroke-linecap="round"><g transform="translate(335.20001220703125 73.99998474121094) rotate(0 -0.7375664278720251 29.62272984393873)"><path d="M0.46 0.55 C0.34 10.36, -0.57 48.32, -0.98 57.94 M-0.76 -0.2 C-1.01 9.89, -2.1 49.45, -1.92 59.45" stroke="#000000" stroke-width="1" fill="none"></path></g><g transform="translate(335.20001220703125 73.99998474121094) rotate(0 -0.7375664278720251 29.62272984393873)"><path d="M-10.7 32.15 C-9.22 38.01, -5.93 45.54, -3.82 60.46 M-12.37 33.06 C-8.72 39.69, -5.33 46.63, -0.95 58.79" stroke="#000000" stroke-width="1" fill="none"></path></g><g transform="translate(335.20001220703125 73.99998474121094) rotate(0 -0.7375664278720251 29.62272984393873)"><path d="M9.14 32.31 C5.09 38.2, 2.85 45.69, -3.82 60.46 M7.47 33.22 C5.56 39.85, 3.41 46.75, -0.95 58.79" stroke="#000000" stroke-width="1" fill="none"></path></g></g><g stroke-linecap="round"><g transform="translate(331.20001220703125 195.99998474121094) rotate(0 1.3851525808540828 20.665178577983752)"><path d="M-0.49 0.56 C0.06 7.19, 2.71 33.76, 3.26 40.33 M1.46 -0.19 C1.82 6.54, 1.48 34.69, 2.11 41.52" stroke="#000000" stroke-width="1" fill="none"></path></g><g transform="translate(331.20001220703125 195.99998474121094) rotate(0 1.3851525808540828 20.665178577983752)"><path d="M-4.61 21.78 C-4.3 26.69, -2.61 33.14, 0.42 43.11 M-6.47 21.75 C-4.31 26.68, -2.06 32.38, 2.35 42.44" stroke="#000000" stroke-width="1" fill="none"></path></g><g transform="translate(331.20001220703125 195.99998474121094) rotate(0 1.3851525808540828 20.665178577983752)"><path d="M9.46 21.33 C5.59 26.31, 3.1 32.9, 0.42 43.11 M7.61 21.3 C6.4 26.42, 5.3 32.23, 2.35 42.44" stroke="#000000" stroke-width="1" fill="none"></path></g></g><g stroke-linecap="round"><g transform="translate(334.8402163214346 304.0272213290594) rotate(0 3.5399428592957065 35.14566495888124)"><path d="M-1.01 -0.58 C-0.17 11.2, 4.67 59.04, 5.78 70.88 M0.65 1.72 C1.82 13.17, 6.87 58.12, 8.09 69.23" stroke="#000000" stroke-width="1" fill="none"></path></g><g transform="translate(334.8402163214346 304.0272213290594) rotate(0 3.5399428592957065 35.14566495888124)"><path d="M-6.2 41.09 C1.09 50.55, 5.15 60.73, 9.46 69.89 M-4.85 42.36 C-1.63 50.41, 1.58 58.56, 7.68 69.36" stroke="#000000" stroke-width="1" fill="none"></path></g><g transform="translate(334.8402163214346 304.0272213290594) rotate(0 3.5399428592957065 35.14566495888124)"><path d="M14.2 38.82 C14.18 48.92, 10.93 59.91, 9.46 69.89 M15.55 40.09 C12.74 48.62, 9.93 57.45, 7.68 69.36" stroke="#000000" stroke-width="1" fill="none"></path></g></g><g stroke-linecap="round"><g transform="translate(338.4507237208245 439.02722132905944) rotate(0 0.8286832529497588 36.03159501117841)"><path d="M0.63 0.62 C1.06 12.66, 1.85 59.38, 2.16 71.08 M-0.5 -0.09 C-0.2 12.17, 0.78 60.21, 1.17 72.16" stroke="#000000" stroke-width="1" fill="none"></path></g><g transform="translate(338.4507237208245 439.02722132905944) rotate(0 0.8286832529497588 36.03159501117841)"><path d="M-8.77 44.13 C-8.64 52.05, -6.1 59.67, 0.3 73.11 M-10.59 43.58 C-6.23 54.06, -1.63 63.61, 1.22 71.77" stroke="#000000" stroke-width="1" fill="none"></path></g><g transform="translate(338.4507237208245 439.02722132905944) rotate(0 0.8286832529497588 36.03159501117841)"><path d="M11.75 43.61 C6.42 51.77, 3.52 59.53, 0.3 73.11 M9.93 43.06 C6.95 53.85, 4.21 63.59, 1.22 71.77" stroke="#000000" stroke-width="1" fill="none"></path></g></g><g stroke-linecap="round"><g transform="translate(271.20001220703125 405.0172909580345) rotate(0 -60.15282587552224 -0.5908452673623117)"><path d="M-0.02 -0.73 C-20.08 -1.09, -99.94 -2.6, -119.97 -2.68 M-1.48 1.49 C-21.64 1.35, -100.46 -0.65, -120.29 -1.41" stroke="#000000" stroke-width="1" fill="none"></path></g><g transform="translate(271.20001220703125 405.0172909580345) rotate(0 -60.15282587552224 -0.5908452673623117)"><path d="M-93.02 -8.81 C-102.28 -6.05, -109.41 -4.64, -120.06 -0.28 M-90.93 -10.42 C-98.59 -8.85, -105.94 -6.96, -119.4 -1.87" stroke="#000000" stroke-width="1" fill="none"></path></g><g transform="translate(271.20001220703125 405.0172909580345) rotate(0 -60.15282587552224 -0.5908452673623117)"><path d="M-93.65 11.7 C-102.6 7.58, -109.52 2.11, -120.06 -0.28 M-91.56 10.09 C-98.89 6.6, -106.09 3.43, -119.4 -1.87" stroke="#000000" stroke-width="1" fill="none"></path></g></g><g stroke-linecap="round"><g transform="translate(406.79094314839904 545.1928108704117) rotate(0 84.54109646324991 2.721657301577011)"><path d="M-0.71 0.49 C27.68 1.43, 141.41 4.9, 169.79 5.74 M1.12 -0.29 C29.45 0.26, 141.19 2.65, 169.17 3.86" stroke="#000000" stroke-width="1" fill="none"></path></g><g transform="translate(406.79094314839904 545.1928108704117) rotate(0 84.54109646324991 2.721657301577011)"><path d="M141.5 14.3 C148.78 11.66, 155.78 7.52, 169.75 4.62 M140.3 14.08 C149.25 10.54, 156.9 8.32, 168.53 4.64" stroke="#000000" stroke-width="1" fill="none"></path></g><g transform="translate(406.79094314839904 545.1928108704117) rotate(0 84.54109646324991 2.721657301577011)"><path d="M142.13 -6.21 C149.27 -3.57, 156.1 -2.43, 169.75 4.62 M140.93 -6.43 C149.68 -4.43, 157.16 -1.11, 168.53 4.64" stroke="#000000" stroke-width="1" fill="none"></path></g></g><g stroke-linecap="round"><g transform="translate(403.20001220703125 274.63534022807085) rotate(0 87.38917417336802 -47.6596461590275)"><path d="M-0.28 1.11 C28.48 -15.09, 143.85 -80.13, 172.98 -96.42 M1.77 0.64 C30.85 -15.45, 146.37 -79.04, 175.06 -95.09" stroke="#000000" stroke-width="1" fill="none"></path></g><g transform="translate(403.20001220703125 274.63534022807085) rotate(0 87.38917417336802 -47.6596461590275)"><path d="M157.22 -74.45 C161.13 -79.38, 167.24 -86.37, 174.35 -95.02 M155.14 -72.62 C162.45 -80.14, 170.49 -90.17, 174.43 -95.46" stroke="#000000" stroke-width="1" fill="none"></path></g><g transform="translate(403.20001220703125 274.63534022807085) rotate(0 87.38917417336802 -47.6596461590275)"><path d="M147.27 -92.39 C154.58 -91.36, 164 -92.4, 174.35 -95.02 M145.19 -90.57 C156.32 -91.56, 168.02 -95, 174.43 -95.46" stroke="#000000" stroke-width="1" fill="none"></path></g></g><g stroke-linecap="round" transform="translate(583 234.97274815336243) rotate(0 67.20001220703125 32.02723658784848)"><path d="M1.32 -1.49 C43.8 -1.39, 86.58 -2.61, 132.9 -1.61 M134.14 1.94 C135.54 18.24, 135.33 36.5, 135.06 65.12 M135.47 65.93 C86.87 65.16, 38.97 62.96, 0.79 63.32 M-0.28 65.47 C0.81 47.72, -0.25 29.12, -1.33 -0.95" stroke="#000000" stroke-width="1.5" fill="none" stroke-dasharray="8 9"></path></g><g transform="translate(591.314856216748 239.14466052765442) rotate(0 53 12.5)"><text x="0" y="18" font-family="Virgil, Segoe UI Emoji" font-size="20.017024912732715px" fill="#000000" text-anchor="start" style="white-space: pre;" direction="ltr">Currency.js</text></g><g stroke-linecap="round"><g transform="translate(404.17018043030475 276.06590409735435) rotate(0 91.68269343978614 -2.677572872116741)"><path d="M-1.05 -0.89 C29.65 -1.79, 153.56 -4.04, 184.42 -4.46" stroke="#000000" stroke-width="1.5" fill="none" stroke-dasharray="8 9"></path></g><g transform="translate(404.17018043030475 276.06590409735435) rotate(0 91.68269343978614 -2.677572872116741)"><path d="M154.91 8.19 C165.08 4.43, 175.71 -0.22, 182.49 -3.99" stroke="#000000" stroke-width="1.5" fill="none"></path></g><g transform="translate(404.17018043030475 276.06590409735435) rotate(0 91.68269343978614 -2.677572872116741)"><path d="M154.57 -12.32 C165 -9.56, 175.74 -7.68, 182.49 -3.99" stroke="#000000" stroke-width="1.5" fill="none"></path></g></g><g stroke-linecap="round" transform="translate(575 27.97274815336243) rotate(0 67.20001220703125 32.02723658784848)"><path d="M0.41 -0.7 C38.6 -1.57, 77.95 0.92, 136.22 1.55 M0.1 0.41 C31.68 -1.28, 62.99 -1.65, 135.12 0.32 M133.81 1.6 C132.84 20.6, 134.19 38.11, 135.83 65.33 M133.6 0.49 C135.37 25.32, 134.12 49.66, 134.48 63.95 M132.46 63.23 C102.43 64.18, 69.08 66.4, 1.78 64.78 M133.81 63.22 C105.9 63.63, 76.87 62.87, -0.7 63.33 M0.46 62.37 C-1.77 40.3, 0.88 13.36, 1.41 -0.69 M-0.43 63.78 C-0.26 44.83, 0.37 25.98, 0.11 0.6" stroke="#000000" stroke-width="1" fill="none"></path></g><g transform="translate(583.314856216748 32.14466052765442) rotate(0 35.5 12.5)"><text x="0" y="18" font-family="Virgil, Segoe UI Emoji" font-size="20.017024912732715px" fill="#000000" text-anchor="start" style="white-space: pre;" direction="ltr">Home.js</text></g><g stroke-linecap="round"><g transform="translate(403.20001220703125 273.76089359710215) rotate(0 83.91403120804648 -104.99697939191552)"><path d="M0.85 -0.41 C28.73 -34.98, 140 -173.11, 168 -207.93 M-0.17 -1.68 C27.49 -36.52, 138.9 -175.14, 166.99 -209.58" stroke="#000000" stroke-width="1" fill="none"></path></g><g transform="translate(403.20001220703125 273.76089359710215) rotate(0 83.91403120804648 -104.99697939191552)"><path d="M156.55 -181.38 C162.35 -190.2, 163.44 -201.99, 167.45 -210.73 M157.85 -181.43 C160.62 -192.87, 165.22 -202.78, 166 -210.25" stroke="#000000" stroke-width="1" fill="none"></path></g><g transform="translate(403.20001220703125 273.76089359710215) rotate(0 83.91403120804648 -104.99697939191552)"><path d="M140.6 -194.29 C152.01 -198.63, 158.77 -205.83, 167.45 -210.73 M141.89 -194.33 C150.71 -200.82, 161.47 -205.76, 166 -210.25" stroke="#000000" stroke-width="1" fill="none"></path></g></g><g stroke-linecap="round"><g transform="translate(845.3147889349179 417.81081687100004) rotate(0 -219.89618109631147 1.9938296707868233)"><path d="M-0.11 1.05 C-73.29 1.28, -365.89 1.96, -438.92 2.52 M-1.63 0.55 C-74.94 1.4, -366.86 3.13, -439.68 3.44" stroke="#000000" stroke-width="1" fill="none"></path></g><g transform="translate(845.3147889349179 417.81081687100004) rotate(0 -219.89618109631147 1.9938296707868233)"><path d="M-409.8 -6.37 C-422.13 -2.13, -427.74 0.28, -440.09 3.46 M-411.31 -6.05 C-421.58 -3.72, -430.94 0.55, -439.35 4.21" stroke="#000000" stroke-width="1" fill="none"></path></g><g transform="translate(845.3147889349179 417.81081687100004) rotate(0 -219.89618109631147 1.9938296707868233)"><path d="M-409.69 14.15 C-422.25 12.03, -427.89 8.08, -440.09 3.46 M-411.2 14.47 C-421.32 9.77, -430.72 7.01, -439.35 4.21" stroke="#000000" stroke-width="1" fill="none"></path></g></g><g stroke-linecap="round" transform="translate(846.0453452931602 368.69923426411157) rotate(0 67.20001220703125 32.02723658784848)"><path d="M-0.56 -0.96 C35.94 -1.32, 69.58 0.49, 134.88 -0.19 M-0.87 -0.36 C54.12 -0.42, 106.51 -0.76, 134.89 0.1 M135.1 1.13 C133.34 19.76, 133.18 42.41, 134.56 65.7 M133.73 0.12 C134.67 22.03, 134.58 44.7, 134.35 64.45 M135.54 65.52 C95.01 64.6, 55.43 64.31, -1.23 62.08 M135.24 64.16 C92.51 65.2, 51.67 65.12, -0.12 63.78 M1.26 64.52 C0.97 49.23, -1.02 33.27, 0.25 1.49 M0.05 64.16 C0.78 48.78, 1.15 33.87, -0.92 -0.04" stroke="#000000" stroke-width="1" fill="none"></path></g><g transform="translate(854.3602015099082 378.22828949554645) rotate(0 59.5 18)"><text x="0" y="25" font-family="Virgil, Segoe UI Emoji" font-size="28.411261166459333px" fill="#000000" text-anchor="start" style="white-space: pre;" direction="ltr">PokeAPI</text></g><g stroke-linecap="round" transform="translate(845 234.97274815336243) rotate(0 67.20001220703125 32.02723658784848)"><path d="M-0.05 -0.66 C27.45 -1.22, 59.43 -1.25, 136.04 1.74 M135.04 1.01 C133.21 15.12, 132.43 30.72, 135 63.11 M134.87 63.72 C100.26 63.96, 64.51 62.94, -1.45 63.86 M0.79 63.16 C-2.07 52.87, -1.73 38.51, -1.26 1.37" stroke="#000000" stroke-width="1.5" fill="none" stroke-dasharray="8 9"></path></g><g transform="translate(853.314856216748 254.5018033847973) rotate(0 61.5 13)"><text x="0" y="18" font-family="Virgil, Segoe UI Emoji" font-size="20.519244175776176px" fill="#000000" text-anchor="start" style="white-space: pre;" direction="ltr">CurrencyAPI</text></g><g stroke-linecap="round" transform="translate(846 127.97274815336243) rotate(0 67.20001220703125 32.02723658784848)"><path d="M-1.43 0.79 C42.6 -0.91, 85.84 -1.73, 132.86 -1.21 M135.62 -0.46 C134.79 22.84, 132.78 45.79, 136.01 62.33 M133.41 64.41 C93.66 61.31, 56.42 63.73, 0.15 64.77 M0.11 65.96 C-1.78 48.11, -0.78 30.01, 0.05 0.39" stroke="#000000" stroke-width="1.5" fill="none" stroke-dasharray="8 9"></path></g><g transform="translate(865.314856216748 145.14466052765442) rotate(0 41.5 12.5)"><text x="0" y="18" font-family="Virgil, Segoe UI Emoji" font-size="20.017024912732715px" fill="#000000" text-anchor="start" style="white-space: pre;" direction="ltr">Firebase</text></g><g stroke-linecap="round"><g transform="translate(714.7120039321017 162.5672985721411) rotate(0 63.10417215714756 -0.11818181066349354)"><path d="M-0.7 -0.36 C20.62 -0.15, 105.53 0.28, 126.91 0.06" stroke="#000000" stroke-width="1.5" fill="none" stroke-dasharray="8 9"></path></g><g transform="translate(714.7120039321017 162.5672985721411) rotate(0 63.10417215714756 -0.11818181066349354)"><path d="M98.14 11.06 C106.08 10.09, 109.23 7.24, 126.17 0.31" stroke="#000000" stroke-width="1.5" fill="none"></path></g><g transform="translate(714.7120039321017 162.5672985721411) rotate(0 63.10417215714756 -0.11818181066349354)"><path d="M98.11 -9.46 C105.85 -6, 109.01 -4.42, 126.17 0.31" stroke="#000000" stroke-width="1.5" fill="none"></path></g></g><g stroke-linecap="round"><g transform="translate(844.2000122070322 267.7975886109849) rotate(0 -63.06792612448362 1.6971487413035078)"><path d="M-0.84 0.01 C-21.61 0.5, -104.68 2.73, -125.3 3.38" stroke="#000000" stroke-width="1.5" fill="none" stroke-dasharray="8 9"></path></g><g transform="translate(844.2000122070322 267.7975886109849) rotate(0 -63.06792612448362 1.6971487413035078)"><path d="M-97.4 -8.19 C-105.39 -4.44, -111.24 -4.1, -126.5 1.6" stroke="#000000" stroke-width="1.5" fill="none"></path></g><g transform="translate(844.2000122070322 267.7975886109849) rotate(0 -63.06792612448362 1.6971487413035078)"><path d="M-96.81 12.33 C-105.02 11.07, -111.01 6.42, -126.5 1.6" stroke="#000000" stroke-width="1.5" fill="none"></path></g></g><g transform="translate(561.9756892917217 356.5880314219927) rotate(0 96 10)"><text x="0" y="14" font-family="Virgil, Segoe UI Emoji" font-size="16px" fill="#000000" text-anchor="start" style="white-space: pre;" direction="ltr">fetches pokemontcg API</text></g><g stroke-linecap="round"><g transform="translate(405.4000244140625 392.45348224559797) rotate(0 221.27278755994894 -3.2522753690780064)"><path d="M-0.88 0.66 C73.08 -0.63, 369.58 -5.97, 443.42 -7.17 M0.86 -0.03 C74.77 -1.22, 369.52 -5.01, 442.92 -5.85" stroke="#000000" stroke-width="1" fill="none"></path></g><g transform="translate(405.4000244140625 392.45348224559797) rotate(0 221.27278755994894 -3.2522753690780064)"><path d="M415.96 6.15 C421.71 1.44, 430.39 -0.63, 442.1 -6.45 M415.44 4.81 C424.18 1.61, 431.9 -2.11, 441.98 -6.56" stroke="#000000" stroke-width="1" fill="none"></path></g><g transform="translate(405.4000244140625 392.45348224559797) rotate(0 221.27278755994894 -3.2522753690780064)"><path d="M415.71 -14.37 C421.63 -13.51, 430.37 -10.01, 442.1 -6.45 M415.19 -15.71 C424.2 -12.37, 432 -9.56, 441.98 -6.56" stroke="#000000" stroke-width="1" fill="none"></path></g></g><g transform="translate(613.7084246337413 424.49974438616204) rotate(0 34 10)"><text x="0" y="14" font-family="Virgil, Segoe UI Emoji" font-size="16px" fill="#000000" text-anchor="start" style="white-space: pre;" direction="ltr">response</text></g><g stroke-linecap="round"><g transform="translate(54.95694159791083 128.9884476988658) rotate(0 36.64137375000723 1.2194790534013649)"><path d="M0.21 1.2 C12.34 1.31, 60.97 1.36, 73.07 1.14" stroke="#000000" stroke-width="1.5" fill="none" stroke-dasharray="8 9"></path></g></g><g transform="translate(143.0056518617548 121.3975167574977) rotate(0 42 10)"><text x="0" y="14" font-family="Virgil, Segoe UI Emoji" font-size="16px" fill="#000000" text-anchor="start" style="white-space: pre;" direction="ltr">in-progress</text></g><g stroke-linecap="round"><g transform="translate(52.59321783243831 83.4867652135238) rotate(0 38.74404808842701 0.05561876235853802)"><path d="M0.45 0.04 C13.33 0.28, 65.44 1.2, 78.26 1.11 M-0.77 -0.98 C11.88 -1.07, 64.6 -0.94, 77.45 -0.73" stroke="#000000" stroke-width="1" fill="none"></path></g></g><g transform="translate(144.77844468585863 65.25907732753029) rotate(0 43.5 20)"><text x="0" y="14" font-family="Virgil, Segoe UI Emoji" font-size="16px" fill="#000000" text-anchor="start" style="white-space: pre;" direction="ltr">current</text><text x="0" y="34" font-family="Virgil, Segoe UI Emoji" font-size="16px" fill="#000000" text-anchor="start" style="white-space: pre;" direction="ltr">components</text></g><g transform="translate(92.18559090409963 12.075292604403273) rotate(0 45.318859182410506 16.78476266015204)"><text x="0" y="23.56952532030408" font-family="Virgil, Segoe UI Emoji" font-size="26.855620256243263px" fill="#000000" text-anchor="start" style="white-space: pre;" direction="ltr">Legend</text></g></svg>